<mxfile host="app.diagrams.net" modified="2023-12-08T04:25:09.837Z" agent="Mozilla/5.0 (Windows NT 10.0; Win64; x64) AppleWebKit/537.36 (KHTML, like Gecko) Chrome/119.0.0.0 Safari/537.36" etag="M77W51bhMH4IRF-bd9SA" version="22.1.7" type="device">
  <diagram name="Page-1" id="c7488fd3-1785-93aa-aadb-54a6760d102a">
    <mxGraphModel dx="2647" dy="2290" grid="1" gridSize="10" guides="1" tooltips="1" connect="1" arrows="1" fold="1" page="1" pageScale="1" pageWidth="1100" pageHeight="850" background="none" math="0" shadow="0">
      <root>
        <mxCell id="0" />
        <mxCell id="1" parent="0" />
        <mxCell id="2b4e8129b02d487f-1" value="Fluxograma&amp;nbsp;Requisições " style="swimlane;html=1;childLayout=stackLayout;horizontal=1;startSize=20;horizontalStack=0;rounded=0;shadow=0;labelBackgroundColor=none;strokeWidth=1;fontFamily=Verdana;fontSize=8;align=center;fillColor=#d80073;strokeColor=#A50040;fontColor=#ffffff;" parent="1" vertex="1">
          <mxGeometry y="-800" width="1100" height="800" as="geometry">
            <mxRectangle x="180" y="70" width="60" height="20" as="alternateBounds" />
          </mxGeometry>
        </mxCell>
        <mxCell id="2b4e8129b02d487f-3" value="N1" style="swimlane;html=1;startSize=20;horizontal=0;fillColor=#6a00ff;fontColor=#ffffff;strokeColor=#3700CC;" parent="2b4e8129b02d487f-1" vertex="1">
          <mxGeometry y="20" width="1100" height="320" as="geometry" />
        </mxCell>
        <mxCell id="ur2h0-PqVUXsRNQ7MQ-a-5" style="edgeStyle=orthogonalEdgeStyle;rounded=0;orthogonalLoop=1;jettySize=auto;html=1;entryX=0.5;entryY=0;entryDx=0;entryDy=0;" parent="2b4e8129b02d487f-3" source="vjjzR6SspAhX7g16NQRn-58" target="ur2h0-PqVUXsRNQ7MQ-a-3" edge="1">
          <mxGeometry relative="1" as="geometry" />
        </mxCell>
        <mxCell id="vjjzR6SspAhX7g16NQRn-58" value="Receber solicitação" style="rounded=1;whiteSpace=wrap;html=1;" parent="2b4e8129b02d487f-3" vertex="1">
          <mxGeometry x="90" y="30" width="120" height="60" as="geometry" />
        </mxCell>
        <mxCell id="vjjzR6SspAhX7g16NQRn-79" value="Sim" style="text;html=1;strokeColor=none;fillColor=none;align=center;verticalAlign=middle;whiteSpace=wrap;rounded=0;" parent="2b4e8129b02d487f-3" vertex="1">
          <mxGeometry x="440" y="147.5" width="60" height="30" as="geometry" />
        </mxCell>
        <mxCell id="ur2h0-PqVUXsRNQ7MQ-a-23" style="edgeStyle=orthogonalEdgeStyle;rounded=0;orthogonalLoop=1;jettySize=auto;html=1;entryX=0.5;entryY=1;entryDx=0;entryDy=0;" parent="2b4e8129b02d487f-3" source="vjjzR6SspAhX7g16NQRn-106" target="vjjzR6SspAhX7g16NQRn-108" edge="1">
          <mxGeometry relative="1" as="geometry" />
        </mxCell>
        <mxCell id="ur2h0-PqVUXsRNQ7MQ-a-24" style="edgeStyle=orthogonalEdgeStyle;rounded=0;orthogonalLoop=1;jettySize=auto;html=1;entryX=0;entryY=0.5;entryDx=0;entryDy=0;" parent="2b4e8129b02d487f-3" source="vjjzR6SspAhX7g16NQRn-106" target="vjjzR6SspAhX7g16NQRn-147" edge="1">
          <mxGeometry relative="1" as="geometry" />
        </mxCell>
        <mxCell id="vjjzR6SspAhX7g16NQRn-106" value="Requisição é&lt;br&gt;de outro nível" style="rhombus;whiteSpace=wrap;html=1;" parent="2b4e8129b02d487f-3" vertex="1">
          <mxGeometry x="440" y="177.5" width="105" height="105" as="geometry" />
        </mxCell>
        <mxCell id="ur2h0-PqVUXsRNQ7MQ-a-95" style="edgeStyle=orthogonalEdgeStyle;rounded=0;orthogonalLoop=1;jettySize=auto;html=1;exitX=0.5;exitY=0;exitDx=0;exitDy=0;entryX=0.5;entryY=1;entryDx=0;entryDy=0;" parent="2b4e8129b02d487f-3" source="vjjzR6SspAhX7g16NQRn-108" target="vjjzR6SspAhX7g16NQRn-203" edge="1">
          <mxGeometry relative="1" as="geometry" />
        </mxCell>
        <mxCell id="vjjzR6SspAhX7g16NQRn-108" value="Encaminha para o nível correto" style="rounded=1;whiteSpace=wrap;html=1;" parent="2b4e8129b02d487f-3" vertex="1">
          <mxGeometry x="432.5" y="80" width="120" height="60" as="geometry" />
        </mxCell>
        <mxCell id="vjjzR6SspAhX7g16NQRn-128" value="Não" style="text;html=1;strokeColor=none;fillColor=none;align=center;verticalAlign=middle;whiteSpace=wrap;rounded=0;" parent="2b4e8129b02d487f-3" vertex="1">
          <mxGeometry x="545" y="200" width="60" height="30" as="geometry" />
        </mxCell>
        <mxCell id="ur2h0-PqVUXsRNQ7MQ-a-25" style="edgeStyle=orthogonalEdgeStyle;rounded=0;orthogonalLoop=1;jettySize=auto;html=1;entryX=0;entryY=0.5;entryDx=0;entryDy=0;" parent="2b4e8129b02d487f-3" source="vjjzR6SspAhX7g16NQRn-147" target="vjjzR6SspAhX7g16NQRn-185" edge="1">
          <mxGeometry relative="1" as="geometry" />
        </mxCell>
        <mxCell id="ur2h0-PqVUXsRNQ7MQ-a-27" style="edgeStyle=orthogonalEdgeStyle;rounded=0;orthogonalLoop=1;jettySize=auto;html=1;entryX=0.5;entryY=1;entryDx=0;entryDy=0;" parent="2b4e8129b02d487f-3" source="vjjzR6SspAhX7g16NQRn-147" target="vjjzR6SspAhX7g16NQRn-189" edge="1">
          <mxGeometry relative="1" as="geometry" />
        </mxCell>
        <mxCell id="vjjzR6SspAhX7g16NQRn-147" value="Existe&lt;br&gt;conhecimento&lt;br&gt;dessa&lt;br&gt;requisição?" style="rhombus;whiteSpace=wrap;html=1;" parent="2b4e8129b02d487f-3" vertex="1">
          <mxGeometry x="605" y="170" width="120" height="120" as="geometry" />
        </mxCell>
        <mxCell id="ur2h0-PqVUXsRNQ7MQ-a-62" style="edgeStyle=orthogonalEdgeStyle;rounded=0;orthogonalLoop=1;jettySize=auto;html=1;entryX=0;entryY=0.5;entryDx=0;entryDy=0;" parent="2b4e8129b02d487f-3" source="vjjzR6SspAhX7g16NQRn-185" target="vjjzR6SspAhX7g16NQRn-187" edge="1">
          <mxGeometry relative="1" as="geometry" />
        </mxCell>
        <mxCell id="vjjzR6SspAhX7g16NQRn-185" value="Atende" style="rounded=1;whiteSpace=wrap;html=1;" parent="2b4e8129b02d487f-3" vertex="1">
          <mxGeometry x="780" y="200" width="120" height="60" as="geometry" />
        </mxCell>
        <mxCell id="ur2h0-PqVUXsRNQ7MQ-a-64" value="" style="edgeStyle=orthogonalEdgeStyle;rounded=0;orthogonalLoop=1;jettySize=auto;html=1;" parent="2b4e8129b02d487f-3" source="vjjzR6SspAhX7g16NQRn-187" target="ur2h0-PqVUXsRNQ7MQ-a-63" edge="1">
          <mxGeometry relative="1" as="geometry" />
        </mxCell>
        <mxCell id="vjjzR6SspAhX7g16NQRn-187" value="Atualiza BC" style="rounded=1;whiteSpace=wrap;html=1;" parent="2b4e8129b02d487f-3" vertex="1">
          <mxGeometry x="930" y="200" width="120" height="60" as="geometry" />
        </mxCell>
        <mxCell id="ur2h0-PqVUXsRNQ7MQ-a-58" style="edgeStyle=orthogonalEdgeStyle;rounded=0;orthogonalLoop=1;jettySize=auto;html=1;entryX=0.5;entryY=0;entryDx=0;entryDy=0;" parent="2b4e8129b02d487f-3" source="vjjzR6SspAhX7g16NQRn-189" target="vjjzR6SspAhX7g16NQRn-185" edge="1">
          <mxGeometry relative="1" as="geometry" />
        </mxCell>
        <mxCell id="vjjzR6SspAhX7g16NQRn-189" value="Consulta o BC" style="rounded=1;whiteSpace=wrap;html=1;" parent="2b4e8129b02d487f-3" vertex="1">
          <mxGeometry x="605" y="80" width="120" height="60" as="geometry" />
        </mxCell>
        <mxCell id="ur2h0-PqVUXsRNQ7MQ-a-12" style="edgeStyle=orthogonalEdgeStyle;rounded=0;orthogonalLoop=1;jettySize=auto;html=1;entryX=0.5;entryY=0;entryDx=0;entryDy=0;" parent="2b4e8129b02d487f-3" source="ur2h0-PqVUXsRNQ7MQ-a-3" target="ur2h0-PqVUXsRNQ7MQ-a-7" edge="1">
          <mxGeometry relative="1" as="geometry" />
        </mxCell>
        <mxCell id="ur2h0-PqVUXsRNQ7MQ-a-3" value="Registrar.&lt;br&gt;Analisar.&lt;br&gt;Priorizar." style="rounded=1;whiteSpace=wrap;html=1;" parent="2b4e8129b02d487f-3" vertex="1">
          <mxGeometry x="90" y="115" width="120" height="60" as="geometry" />
        </mxCell>
        <mxCell id="ur2h0-PqVUXsRNQ7MQ-a-17" value="" style="edgeStyle=orthogonalEdgeStyle;rounded=0;orthogonalLoop=1;jettySize=auto;html=1;" parent="2b4e8129b02d487f-3" source="ur2h0-PqVUXsRNQ7MQ-a-7" target="ur2h0-PqVUXsRNQ7MQ-a-16" edge="1">
          <mxGeometry relative="1" as="geometry" />
        </mxCell>
        <mxCell id="ur2h0-PqVUXsRNQ7MQ-a-18" style="edgeStyle=orthogonalEdgeStyle;rounded=0;orthogonalLoop=1;jettySize=auto;html=1;exitX=1;exitY=0.5;exitDx=0;exitDy=0;entryX=0;entryY=0.5;entryDx=0;entryDy=0;" parent="2b4e8129b02d487f-3" source="ur2h0-PqVUXsRNQ7MQ-a-7" target="ur2h0-PqVUXsRNQ7MQ-a-14" edge="1">
          <mxGeometry relative="1" as="geometry" />
        </mxCell>
        <mxCell id="ur2h0-PqVUXsRNQ7MQ-a-20" style="edgeStyle=orthogonalEdgeStyle;rounded=0;orthogonalLoop=1;jettySize=auto;html=1;entryX=0;entryY=0.5;entryDx=0;entryDy=0;" parent="2b4e8129b02d487f-3" source="ur2h0-PqVUXsRNQ7MQ-a-7" target="ur2h0-PqVUXsRNQ7MQ-a-13" edge="1">
          <mxGeometry relative="1" as="geometry" />
        </mxCell>
        <mxCell id="ur2h0-PqVUXsRNQ7MQ-a-7" value="Definir requisição, incidente ou problema.&amp;nbsp;" style="rounded=1;whiteSpace=wrap;html=1;" parent="2b4e8129b02d487f-3" vertex="1">
          <mxGeometry x="90" y="200" width="120" height="60" as="geometry" />
        </mxCell>
        <mxCell id="ur2h0-PqVUXsRNQ7MQ-a-13" value="Problema" style="shape=process;whiteSpace=wrap;html=1;backgroundOutline=1;" parent="2b4e8129b02d487f-3" vertex="1">
          <mxGeometry x="270" y="30" width="120" height="60" as="geometry" />
        </mxCell>
        <mxCell id="ur2h0-PqVUXsRNQ7MQ-a-14" value="Incidente&amp;nbsp;" style="shape=process;whiteSpace=wrap;html=1;backgroundOutline=1;" parent="2b4e8129b02d487f-3" vertex="1">
          <mxGeometry x="270" y="115" width="120" height="60" as="geometry" />
        </mxCell>
        <mxCell id="ur2h0-PqVUXsRNQ7MQ-a-21" style="edgeStyle=orthogonalEdgeStyle;rounded=0;orthogonalLoop=1;jettySize=auto;html=1;entryX=0;entryY=0.5;entryDx=0;entryDy=0;" parent="2b4e8129b02d487f-3" source="ur2h0-PqVUXsRNQ7MQ-a-16" target="vjjzR6SspAhX7g16NQRn-106" edge="1">
          <mxGeometry relative="1" as="geometry" />
        </mxCell>
        <mxCell id="ur2h0-PqVUXsRNQ7MQ-a-16" value="Requisição" style="whiteSpace=wrap;html=1;rounded=1;" parent="2b4e8129b02d487f-3" vertex="1">
          <mxGeometry x="270" y="200" width="120" height="60" as="geometry" />
        </mxCell>
        <mxCell id="ur2h0-PqVUXsRNQ7MQ-a-26" value="Sim" style="text;html=1;strokeColor=none;fillColor=none;align=center;verticalAlign=middle;whiteSpace=wrap;rounded=0;" parent="2b4e8129b02d487f-3" vertex="1">
          <mxGeometry x="620" y="140" width="60" height="30" as="geometry" />
        </mxCell>
        <mxCell id="ur2h0-PqVUXsRNQ7MQ-a-55" value="Não" style="text;html=1;strokeColor=none;fillColor=none;align=center;verticalAlign=middle;whiteSpace=wrap;rounded=0;" parent="2b4e8129b02d487f-3" vertex="1">
          <mxGeometry x="720" y="200" width="60" height="30" as="geometry" />
        </mxCell>
        <mxCell id="ur2h0-PqVUXsRNQ7MQ-a-63" value="Comunica Cliente" style="whiteSpace=wrap;html=1;rounded=1;" parent="2b4e8129b02d487f-3" vertex="1">
          <mxGeometry x="930" y="60" width="120" height="60" as="geometry" />
        </mxCell>
        <mxCell id="vjjzR6SspAhX7g16NQRn-203" value="&lt;font style=&quot;font-size: 20px;&quot;&gt;X&lt;/font&gt;" style="ellipse;whiteSpace=wrap;html=1;aspect=fixed;" parent="2b4e8129b02d487f-3" vertex="1">
          <mxGeometry x="472.5" y="20" width="40" height="40" as="geometry" />
        </mxCell>
        <mxCell id="2b4e8129b02d487f-4" value="N2" style="swimlane;html=1;startSize=20;horizontal=0;fillColor=#d80073;fontColor=#ffffff;strokeColor=#A50040;" parent="2b4e8129b02d487f-1" vertex="1">
          <mxGeometry y="340" width="1100" height="460" as="geometry" />
        </mxCell>
        <mxCell id="vjjzR6SspAhX7g16NQRn-227" value="Sim" style="text;html=1;strokeColor=none;fillColor=none;align=center;verticalAlign=middle;whiteSpace=wrap;rounded=0;" parent="2b4e8129b02d487f-4" vertex="1">
          <mxGeometry x="390" y="50" width="60" height="30" as="geometry" />
        </mxCell>
        <mxCell id="vjjzR6SspAhX7g16NQRn-228" value="Não" style="text;html=1;strokeColor=none;fillColor=none;align=center;verticalAlign=middle;whiteSpace=wrap;rounded=0;" parent="2b4e8129b02d487f-4" vertex="1">
          <mxGeometry x="330" y="145" width="60" height="30" as="geometry" />
        </mxCell>
        <mxCell id="_Ld9VESk47fDk7o225M8-6" style="edgeStyle=orthogonalEdgeStyle;rounded=0;orthogonalLoop=1;jettySize=auto;html=1;entryX=0;entryY=0.5;entryDx=0;entryDy=0;" edge="1" parent="2b4e8129b02d487f-4" source="WL2loHngfLVMSbmiMG4r-16" target="_Ld9VESk47fDk7o225M8-4">
          <mxGeometry relative="1" as="geometry" />
        </mxCell>
        <mxCell id="WL2loHngfLVMSbmiMG4r-16" value="Recebe solicitação" style="rounded=1;whiteSpace=wrap;html=1;" parent="2b4e8129b02d487f-4" vertex="1">
          <mxGeometry x="120" y="50" width="120" height="60" as="geometry" />
        </mxCell>
        <mxCell id="WL2loHngfLVMSbmiMG4r-1" value="N3" style="swimlane;html=1;startSize=20;horizontal=0;fillColor=#d80073;fontColor=#ffffff;strokeColor=#A50040;" parent="2b4e8129b02d487f-4" vertex="1">
          <mxGeometry y="230" width="1100" height="230" as="geometry" />
        </mxCell>
        <mxCell id="_Ld9VESk47fDk7o225M8-15" value="Sim" style="text;html=1;strokeColor=none;fillColor=none;align=center;verticalAlign=middle;whiteSpace=wrap;rounded=0;" vertex="1" parent="WL2loHngfLVMSbmiMG4r-1">
          <mxGeometry x="390" y="50" width="60" height="30" as="geometry" />
        </mxCell>
        <mxCell id="_Ld9VESk47fDk7o225M8-16" value="Não" style="text;html=1;strokeColor=none;fillColor=none;align=center;verticalAlign=middle;whiteSpace=wrap;rounded=0;" vertex="1" parent="WL2loHngfLVMSbmiMG4r-1">
          <mxGeometry x="330" y="145" width="60" height="30" as="geometry" />
        </mxCell>
        <mxCell id="_Ld9VESk47fDk7o225M8-18" value="Recebe solicitação" style="rounded=1;whiteSpace=wrap;html=1;" vertex="1" parent="WL2loHngfLVMSbmiMG4r-1">
          <mxGeometry x="120" y="50" width="120" height="60" as="geometry" />
        </mxCell>
        <mxCell id="_Ld9VESk47fDk7o225M8-19" style="edgeStyle=orthogonalEdgeStyle;rounded=0;orthogonalLoop=1;jettySize=auto;html=1;entryX=0;entryY=0.5;entryDx=0;entryDy=0;" edge="1" parent="WL2loHngfLVMSbmiMG4r-1" source="_Ld9VESk47fDk7o225M8-20" target="_Ld9VESk47fDk7o225M8-18">
          <mxGeometry relative="1" as="geometry" />
        </mxCell>
        <mxCell id="_Ld9VESk47fDk7o225M8-20" value="&lt;font style=&quot;font-size: 20px;&quot;&gt;X&lt;/font&gt;" style="ellipse;whiteSpace=wrap;html=1;aspect=fixed;" vertex="1" parent="WL2loHngfLVMSbmiMG4r-1">
          <mxGeometry x="50" y="60" width="40" height="40" as="geometry" />
        </mxCell>
        <mxCell id="_Ld9VESk47fDk7o225M8-23" value="Existe&lt;br&gt;conhecimento&lt;br&gt;dessa&lt;br&gt;requisição?" style="rhombus;whiteSpace=wrap;html=1;" vertex="1" parent="WL2loHngfLVMSbmiMG4r-1">
          <mxGeometry x="270" y="20" width="120" height="120" as="geometry" />
        </mxCell>
        <mxCell id="_Ld9VESk47fDk7o225M8-17" style="edgeStyle=orthogonalEdgeStyle;rounded=0;orthogonalLoop=1;jettySize=auto;html=1;entryX=0;entryY=0.5;entryDx=0;entryDy=0;" edge="1" parent="WL2loHngfLVMSbmiMG4r-1" source="_Ld9VESk47fDk7o225M8-18" target="_Ld9VESk47fDk7o225M8-23">
          <mxGeometry relative="1" as="geometry" />
        </mxCell>
        <mxCell id="_Ld9VESk47fDk7o225M8-25" value="Consulta o BC" style="rounded=1;whiteSpace=wrap;html=1;" vertex="1" parent="WL2loHngfLVMSbmiMG4r-1">
          <mxGeometry x="450" y="50" width="120" height="60" as="geometry" />
        </mxCell>
        <mxCell id="_Ld9VESk47fDk7o225M8-21" style="edgeStyle=orthogonalEdgeStyle;rounded=0;orthogonalLoop=1;jettySize=auto;html=1;entryX=0;entryY=0.5;entryDx=0;entryDy=0;" edge="1" parent="WL2loHngfLVMSbmiMG4r-1" source="_Ld9VESk47fDk7o225M8-23" target="_Ld9VESk47fDk7o225M8-25">
          <mxGeometry relative="1" as="geometry" />
        </mxCell>
        <mxCell id="_Ld9VESk47fDk7o225M8-26" value="Atende" style="rounded=1;whiteSpace=wrap;html=1;" vertex="1" parent="WL2loHngfLVMSbmiMG4r-1">
          <mxGeometry x="450" y="145" width="120" height="60" as="geometry" />
        </mxCell>
        <mxCell id="_Ld9VESk47fDk7o225M8-22" style="edgeStyle=orthogonalEdgeStyle;rounded=0;orthogonalLoop=1;jettySize=auto;html=1;entryX=0;entryY=0.5;entryDx=0;entryDy=0;" edge="1" parent="WL2loHngfLVMSbmiMG4r-1" source="_Ld9VESk47fDk7o225M8-23" target="_Ld9VESk47fDk7o225M8-26">
          <mxGeometry relative="1" as="geometry">
            <Array as="points">
              <mxPoint x="330" y="175" />
            </Array>
          </mxGeometry>
        </mxCell>
        <mxCell id="_Ld9VESk47fDk7o225M8-24" style="edgeStyle=orthogonalEdgeStyle;rounded=0;orthogonalLoop=1;jettySize=auto;html=1;entryX=0.5;entryY=0;entryDx=0;entryDy=0;" edge="1" parent="WL2loHngfLVMSbmiMG4r-1" source="_Ld9VESk47fDk7o225M8-25" target="_Ld9VESk47fDk7o225M8-26">
          <mxGeometry relative="1" as="geometry" />
        </mxCell>
        <mxCell id="_Ld9VESk47fDk7o225M8-5" style="edgeStyle=orthogonalEdgeStyle;rounded=0;orthogonalLoop=1;jettySize=auto;html=1;entryX=0;entryY=0.5;entryDx=0;entryDy=0;" edge="1" parent="2b4e8129b02d487f-4" source="ur2h0-PqVUXsRNQ7MQ-a-93" target="WL2loHngfLVMSbmiMG4r-16">
          <mxGeometry relative="1" as="geometry" />
        </mxCell>
        <mxCell id="ur2h0-PqVUXsRNQ7MQ-a-93" value="&lt;font style=&quot;font-size: 20px;&quot;&gt;X&lt;/font&gt;" style="ellipse;whiteSpace=wrap;html=1;aspect=fixed;" parent="2b4e8129b02d487f-4" vertex="1">
          <mxGeometry x="50" y="60" width="40" height="40" as="geometry" />
        </mxCell>
        <mxCell id="_Ld9VESk47fDk7o225M8-10" style="edgeStyle=orthogonalEdgeStyle;rounded=0;orthogonalLoop=1;jettySize=auto;html=1;entryX=0;entryY=0.5;entryDx=0;entryDy=0;" edge="1" parent="2b4e8129b02d487f-4" source="_Ld9VESk47fDk7o225M8-4" target="_Ld9VESk47fDk7o225M8-7">
          <mxGeometry relative="1" as="geometry" />
        </mxCell>
        <mxCell id="_Ld9VESk47fDk7o225M8-12" style="edgeStyle=orthogonalEdgeStyle;rounded=0;orthogonalLoop=1;jettySize=auto;html=1;entryX=0;entryY=0.5;entryDx=0;entryDy=0;" edge="1" parent="2b4e8129b02d487f-4" source="_Ld9VESk47fDk7o225M8-4" target="_Ld9VESk47fDk7o225M8-11">
          <mxGeometry relative="1" as="geometry">
            <Array as="points">
              <mxPoint x="330" y="175" />
            </Array>
          </mxGeometry>
        </mxCell>
        <mxCell id="_Ld9VESk47fDk7o225M8-4" value="Existe&lt;br&gt;conhecimento&lt;br&gt;dessa&lt;br&gt;requisição?" style="rhombus;whiteSpace=wrap;html=1;" vertex="1" parent="2b4e8129b02d487f-4">
          <mxGeometry x="270" y="20" width="120" height="120" as="geometry" />
        </mxCell>
        <mxCell id="_Ld9VESk47fDk7o225M8-13" style="edgeStyle=orthogonalEdgeStyle;rounded=0;orthogonalLoop=1;jettySize=auto;html=1;entryX=0.5;entryY=0;entryDx=0;entryDy=0;" edge="1" parent="2b4e8129b02d487f-4" source="_Ld9VESk47fDk7o225M8-7" target="_Ld9VESk47fDk7o225M8-11">
          <mxGeometry relative="1" as="geometry" />
        </mxCell>
        <mxCell id="_Ld9VESk47fDk7o225M8-7" value="Consulta o BC" style="rounded=1;whiteSpace=wrap;html=1;" vertex="1" parent="2b4e8129b02d487f-4">
          <mxGeometry x="450" y="50" width="120" height="60" as="geometry" />
        </mxCell>
        <mxCell id="_Ld9VESk47fDk7o225M8-11" value="Atende" style="rounded=1;whiteSpace=wrap;html=1;" vertex="1" parent="2b4e8129b02d487f-4">
          <mxGeometry x="450" y="145" width="120" height="60" as="geometry" />
        </mxCell>
        <mxCell id="_Ld9VESk47fDk7o225M8-14" style="edgeStyle=orthogonalEdgeStyle;rounded=0;orthogonalLoop=1;jettySize=auto;html=1;entryX=0.5;entryY=1;entryDx=0;entryDy=0;" edge="1" parent="2b4e8129b02d487f-1" source="_Ld9VESk47fDk7o225M8-11" target="vjjzR6SspAhX7g16NQRn-187">
          <mxGeometry relative="1" as="geometry" />
        </mxCell>
        <mxCell id="_Ld9VESk47fDk7o225M8-27" style="edgeStyle=orthogonalEdgeStyle;rounded=0;orthogonalLoop=1;jettySize=auto;html=1;entryX=0.5;entryY=1;entryDx=0;entryDy=0;" edge="1" parent="2b4e8129b02d487f-1" source="_Ld9VESk47fDk7o225M8-26" target="vjjzR6SspAhX7g16NQRn-187">
          <mxGeometry relative="1" as="geometry">
            <mxPoint x="1050" y="670" as="targetPoint" />
          </mxGeometry>
        </mxCell>
        <mxCell id="_Ld9VESk47fDk7o225M8-28" value="&lt;font style=&quot;vertical-align: inherit; font-size: 40px;&quot;&gt;&lt;font style=&quot;vertical-align: inherit; font-size: 40px;&quot;&gt;Control Woods&lt;/font&gt;&lt;/font&gt;" style="text;html=1;strokeColor=none;fillColor=none;align=center;verticalAlign=middle;whiteSpace=wrap;rounded=0;strokeWidth=1;fontSize=40;" vertex="1" parent="1">
          <mxGeometry x="320" y="-840" width="460" height="30" as="geometry" />
        </mxCell>
      </root>
    </mxGraphModel>
  </diagram>
</mxfile>
